<svg width="25" height="20" viewBox="0 0 25 20" fill="none" xmlns="http://www.w3.org/2000/svg">
<path d="M20.817 2.38853C19.261 1.67429 17.6189 1.16497 15.9319 0.873327C15.9166 0.870468 15.9007 0.872515 15.8866 0.879176C15.8725 0.885837 15.8609 0.896772 15.8534 0.910427C15.6424 1.28573 15.4087 1.77523 15.2451 2.15993C13.4004 1.88373 11.5651 1.88373 9.75829 2.15993C9.59469 1.76663 9.35249 1.28573 9.14059 0.910427C9.13274 0.897084 9.12105 0.886415 9.10705 0.879815C9.09304 0.873215 9.07738 0.870989 9.06209 0.873427C7.37487 1.16439 5.73268 1.67367 4.17689 2.38843C4.16358 2.39411 4.15236 2.40379 4.14479 2.41613C1.03339 7.06453 0.180989 11.5986 0.599189 16.0765C0.600371 16.0875 0.603742 16.0981 0.609101 16.1077C0.61446 16.1174 0.621699 16.1258 0.630389 16.1326C2.68319 17.6402 4.67169 18.5554 6.62329 19.162C6.63846 19.1666 6.65466 19.1663 6.66971 19.1614C6.68476 19.1565 6.69794 19.1471 6.70749 19.1344C7.16909 18.504 7.58059 17.8392 7.93349 17.1402C7.93834 17.1307 7.94111 17.1202 7.94161 17.1094C7.94212 17.0987 7.94035 17.088 7.93642 17.078C7.93249 17.0681 7.92649 17.059 7.91881 17.0515C7.91114 17.044 7.90196 17.0382 7.89189 17.0345C7.23909 16.7869 6.61759 16.485 6.01969 16.1422C6.00879 16.1358 5.99963 16.1268 5.99302 16.1161C5.98642 16.1053 5.98257 16.093 5.98182 16.0804C5.98107 16.0678 5.98344 16.0552 5.98871 16.0437C5.99399 16.0322 6.00202 16.0222 6.01209 16.0145C6.13789 15.9202 6.26379 15.8222 6.38389 15.7231C6.39456 15.7143 6.40748 15.7087 6.42119 15.7068C6.4349 15.705 6.44886 15.707 6.46149 15.7126C10.3893 17.5059 14.6415 17.5059 18.5229 15.7126C18.5355 15.7066 18.5496 15.7043 18.5635 15.706C18.5774 15.7077 18.5905 15.7133 18.6014 15.7221C18.7216 15.8211 18.8474 15.9202 18.9742 16.0145C18.9843 16.0221 18.9924 16.032 18.9977 16.0435C19.0031 16.0549 19.0055 16.0675 19.0049 16.0801C19.0042 16.0927 19.0005 16.1049 18.994 16.1158C18.9875 16.1266 18.9784 16.1356 18.9676 16.1421C18.3695 16.4915 17.7429 16.7897 17.0946 17.0335C17.0845 17.0374 17.0754 17.0433 17.0678 17.0509C17.0601 17.0586 17.0542 17.0677 17.0504 17.0778C17.0465 17.0878 17.0449 17.0986 17.0455 17.1094C17.0461 17.1201 17.0489 17.1307 17.0539 17.1402C17.4143 17.8382 17.8258 18.503 18.2789 19.1334C18.2881 19.1464 18.3013 19.1562 18.3164 19.1613C18.3315 19.1665 18.3478 19.1667 18.3631 19.162C20.3241 18.5553 22.3126 17.6401 24.3654 16.1326C24.3742 16.1262 24.3816 16.1179 24.387 16.1084C24.3924 16.0989 24.3957 16.0883 24.3967 16.0774C24.8971 10.9004 23.5585 6.40353 20.8482 2.41703C20.8415 2.40408 20.8305 2.39403 20.817 2.38853ZM8.51999 13.3499C7.33749 13.3499 6.36309 12.2642 6.36309 10.9309C6.36309 9.59773 7.31859 8.51203 8.52009 8.51203C9.73089 8.51203 10.6958 9.60723 10.6769 10.931C10.6769 12.2642 9.72139 13.3499 8.51999 13.3499ZM16.4948 13.3499C15.3123 13.3499 14.3379 12.2642 14.3379 10.9309C14.3379 9.59773 15.2933 8.51203 16.4948 8.51203C17.7056 8.51203 18.6705 9.60723 18.6516 10.931C18.6516 12.2642 17.7056 13.3499 16.4948 13.3499Z" fill="#D01C1F"/>
</svg>
