<svg width="25" height="24" viewBox="0 0 25 24" fill="none" xmlns="http://www.w3.org/2000/svg">
<path id="Vector" d="M12.5 0.315918C5.87 0.315918 0.5 5.68892 0.5 12.3159C0.5 17.6189 3.938 22.1159 8.705 23.7009C9.305 23.8139 9.525 23.4429 9.525 23.1239C9.525 22.8389 9.515 22.0839 9.51 21.0839C6.172 21.8079 5.468 19.4739 5.468 19.4739C4.922 18.0889 4.133 17.7189 4.133 17.7189C3.046 16.9749 4.217 16.9899 4.217 16.9899C5.422 17.0739 6.055 18.2259 6.055 18.2259C7.125 20.0609 8.864 19.5309 9.55 19.2239C9.658 18.4479 9.967 17.9189 10.31 17.6189C7.645 17.3189 4.844 16.2869 4.844 11.6889C4.844 10.3789 5.309 9.30892 6.079 8.46892C5.944 8.16592 5.539 6.94592 6.184 5.29292C6.184 5.29292 7.189 4.97092 9.484 6.52292C10.444 6.25592 11.464 6.12392 12.484 6.11792C13.504 6.12392 14.524 6.25592 15.484 6.52292C17.764 4.97092 18.769 5.29292 18.769 5.29292C19.414 6.94592 19.009 8.16592 18.889 8.46892C19.654 9.30892 20.119 10.3789 20.119 11.6889C20.119 16.2989 17.314 17.3139 14.644 17.6089C15.064 17.9689 15.454 18.7049 15.454 19.8289C15.454 21.4349 15.439 22.7249 15.439 23.1149C15.439 23.4299 15.649 23.8049 16.264 23.6849C21.065 22.1109 24.5 17.6109 24.5 12.3159C24.5 5.68892 19.127 0.315918 12.5 0.315918Z" fill="#D01C1F"/>
</svg>
