<svg width="25" height="25" viewBox="0 0 25 25" fill="none" xmlns="http://www.w3.org/2000/svg">
<g id="Frame" clip-path="url(#clip0_91_350)">
<path id="Vector" d="M20.947 20.4708H17.393V14.9018C17.393 13.5738 17.366 11.8648 15.541 11.8648C13.688 11.8648 13.405 13.3098 13.405 14.8038V20.4708H9.851V9.0188H13.265V10.5798H13.311C13.788 9.6798 14.948 8.7298 16.681 8.7298C20.282 8.7298 20.948 11.0998 20.948 14.1848L20.947 20.4708ZM5.837 7.4518C4.693 7.4518 3.774 6.5258 3.774 5.3868C3.774 4.2488 4.694 3.3238 5.837 3.3238C6.977 3.3238 7.901 4.2488 7.901 5.3868C7.901 6.5258 6.976 7.4518 5.837 7.4518ZM7.619 20.4708H4.055V9.0188H7.619V20.4708ZM22.725 0.0187988H2.271C1.292 0.0187988 0.5 0.792799 0.5 1.7478V22.2898C0.5 23.2458 1.292 24.0188 2.271 24.0188H22.722C23.7 24.0188 24.5 23.2458 24.5 22.2898V1.7478C24.5 0.792799 23.7 0.0187988 22.722 0.0187988H22.725Z" fill="#D01C1F"/>
</g>
<defs>
<clipPath id="clip0_91_350">
<rect width="24" height="24" fill="white" transform="translate(0.5 0.0187988)"/>
</clipPath>
</defs>
</svg>
