<svg width="16" height="15" viewBox="0 0 16 15" fill="none" xmlns="http://www.w3.org/2000/svg">
<mask id="mask0_87_130" style="mask-type:alpha" maskUnits="userSpaceOnUse" x="0" y="0" width="16" height="15">
<rect x="0.152771" y="0.54541" width="15.8472" height="14" fill="#D9D9D9"/>
</mask>
<g mask="url(#mask0_87_130)">
<path d="M7.4161 10.4622H4.77489C3.86148 10.4622 3.08287 10.1779 2.43908 9.60912C1.79529 9.04037 1.47339 8.35252 1.47339 7.54557C1.47339 6.73863 1.79529 6.05078 2.43908 5.48203C3.08287 4.91328 3.86148 4.62891 4.77489 4.62891H7.4161V5.79557H4.77489C4.22464 5.79557 3.75693 5.96571 3.37175 6.30599C2.98658 6.64627 2.79399 7.05946 2.79399 7.54557C2.79399 8.03168 2.98658 8.44488 3.37175 8.78516C3.75693 9.12543 4.22464 9.29557 4.77489 9.29557H7.4161V10.4622ZM5.43519 8.12891V6.96224H10.7176V8.12891H5.43519ZM8.7367 10.4622V9.29557H11.3779C11.9282 9.29557 12.3959 9.12543 12.781 8.78516C13.1662 8.44488 13.3588 8.03168 13.3588 7.54557C13.3588 7.05946 13.1662 6.64627 12.781 6.30599C12.3959 5.96571 11.9282 5.79557 11.3779 5.79557H8.7367V4.62891H11.3779C12.2913 4.62891 13.0699 4.91328 13.7137 5.48203C14.3575 6.05078 14.6794 6.73863 14.6794 7.54557C14.6794 8.35252 14.3575 9.04037 13.7137 9.60912C13.0699 10.1779 12.2913 10.4622 11.3779 10.4622H8.7367Z" fill="black"/>
</g>
</svg>
