<svg width="25" height="25" viewBox="0 0 25 25" fill="none" xmlns="http://www.w3.org/2000/svg">
<g clip-path="url(#clip0_91_354)">
<mask id="mask0_91_354" style="mask-type:luminance" maskUnits="userSpaceOnUse" x="0" y="0" width="25" height="25">
<path d="M0.5 0.0187988H24.5V24.0188H0.5V0.0187988Z" fill="white"/>
</mask>
<g mask="url(#mask0_91_354)">
<path d="M22.6432 17.3286L20.4352 15.1206C20.0356 14.721 19.535 14.4374 18.9869 14.3001C18.4388 14.1627 17.8636 14.1767 17.3228 14.3406C16.782 14.5045 16.2959 14.8122 15.9162 15.2307C15.5366 15.6493 15.2777 16.163 15.1672 16.7172C11.5261 16.0364 7.98485 12.5096 7.76443 9.35743C8.38352 9.2433 8.95332 8.94375 9.39832 8.49848C9.98374 7.91291 10.3126 7.11881 10.3126 6.2908C10.3126 5.46279 9.98374 4.66867 9.39832 4.08311L7.19095 1.87574C6.6055 1.29036 5.81149 0.961506 4.98359 0.961506C4.15568 0.961506 3.36167 1.29036 2.77622 1.87574C-3.84589 8.49848 16.0211 28.3654 22.6432 21.7427C23.2285 21.1573 23.5573 20.3634 23.5573 19.5356C23.5573 18.7078 23.2285 17.9139 22.6432 17.3286Z" fill="#D01C1F"/>
</g>
</g>
<defs>
<clipPath id="clip0_91_354">
<rect width="24" height="24" fill="white" transform="translate(0.5 0.0187988)"/>
</clipPath>
</defs>
</svg>
