<svg width="25" height="25" viewBox="0 0 25 25" fill="none" xmlns="http://www.w3.org/2000/svg">
<g id="Frame" clip-path="url(#clip0_91_352)">
<path id="Vector" d="M12.444 0.0188315C9.27112 0.0336385 6.23324 1.30445 3.9949 3.55329C1.75656 5.80212 0.499965 8.84591 0.5 12.0188C0.5 15.2014 1.76428 18.2537 4.01472 20.5041C6.26515 22.7545 9.3174 24.0188 12.5 24.0188C15.6826 24.0188 18.7348 22.7545 20.9853 20.5041C23.2357 18.2537 24.5 15.2014 24.5 12.0188C24.5 8.83623 23.2357 5.78399 20.9853 3.53355C18.7348 1.28311 15.6826 0.0188315 12.5 0.0188315C12.4813 0.0187879 12.4627 0.0187879 12.444 0.0188315ZM17.406 7.24283C17.506 7.24083 17.727 7.26583 17.871 7.38283C17.9667 7.46593 18.0277 7.58191 18.042 7.70783C18.058 7.80083 18.078 8.01383 18.062 8.17983C17.882 10.0778 17.1 14.6818 16.702 16.8068C16.534 17.7068 16.203 18.0078 15.882 18.0368C15.186 18.1018 14.657 17.5768 13.982 17.1348C12.926 16.4418 12.329 16.0108 11.304 15.3348C10.119 14.5548 10.887 14.1248 11.562 13.4248C11.739 13.2408 14.809 10.4478 14.869 10.1948C14.876 10.1628 14.883 10.0448 14.813 9.98283C14.743 9.92083 14.639 9.94183 14.564 9.95883C14.458 9.98283 12.771 11.0988 9.503 13.3038C9.023 13.6338 8.59 13.7938 8.201 13.7838C7.773 13.7758 6.949 13.5428 6.336 13.3438C5.584 13.0988 4.987 12.9698 5.039 12.5548C5.066 12.3388 5.364 12.1178 5.932 11.8918C9.43 10.3678 11.762 9.36283 12.93 8.87783C16.262 7.49183 16.955 7.25083 17.406 7.24283Z" fill="#D01C1F"/>
</g>
<defs>
<clipPath id="clip0_91_352">
<rect width="24" height="24" fill="white" transform="translate(0.5 0.0187988)"/>
</clipPath>
</defs>
</svg>
